# xmcd
# Track frame offsets:
# 150
# 21974
# 46190
# 65961
# 86167
# 106276
# 122230
# 140870
# 166872
# 190061
# 204447
# 218447
#
# Disc length: 3140 seconds
# Revision: 0
# Processed by: cddbd v1.5.2PL0 Copyright (c) Steve Scherf et al.
# Submitted via: VisiTrax 2.11.3.279 - For more info visit www.synapsa.com
#
DISCID=ae0c420c
DTITLE=Bare Bones Boogie Band - Tattered and Torn
DYEAR=2013
DGENRE=Rock
TTITLE0=Love like leather
TTITLE1=Springtime
TTITLE2=Black coffee
TTITLE3=Cheatin' again
TTITLE4=Passion and pain
TTITLE5=Appreciation
TTITLE6=Dig a little deeper
TTITLE7=Meet me in the morning
TTITLE8=Sweet release
TTITLE9=Time to be free
TTITLE10=Son of a king
TTITLE11=Seven miles to the station
EXTD=
EXTT0=
EXTT1=
EXTT2=
EXTT3=
EXTT4=
EXTT5=
EXTT6=
EXTT7=
EXTT8=
EXTT9=
EXTT10=
EXTT11=
PLAYORDER=
